<svg xmlns="http://www.w3.org/2000/svg" xmlns:xlink="http://www.w3.org/1999/xlink" width="486" zoomAndPan="magnify" viewBox="0 0 364.5 114.749999" height="153" preserveAspectRatio="xMidYMid meet" version="1.0"><defs><g/><clipPath id="8562141d54"><path d="M 266 35 L 303 35 L 303 72 L 266 72 Z M 266 35 " clip-rule="nonzero"/></clipPath><clipPath id="4ba6011849"><path d="M 279.5625 84.003906 L 248.871094 53.308594 L 279.5625 22.617188 L 310.253906 53.308594 Z M 279.5625 84.003906 " clip-rule="nonzero"/></clipPath><clipPath id="8c79c64c35"><path d="M 279.5625 84.003906 L 248.871094 53.308594 L 279.5625 22.617188 L 310.253906 53.308594 Z M 279.5625 84.003906 " clip-rule="nonzero"/></clipPath><clipPath id="588b3c1a60"><path d="M 272 35 L 274 35 L 274 45 L 272 45 Z M 272 35 " clip-rule="nonzero"/></clipPath><clipPath id="b2a8898b54"><path d="M 279.5625 84.003906 L 248.871094 53.308594 L 279.5625 22.617188 L 310.253906 53.308594 Z M 279.5625 84.003906 " clip-rule="nonzero"/></clipPath><clipPath id="2521ef9fef"><path d="M 279.5625 84.003906 L 248.871094 53.308594 L 279.5625 22.617188 L 310.253906 53.308594 Z M 279.5625 84.003906 " clip-rule="nonzero"/></clipPath><clipPath id="b185bf6b5f"><path d="M 272 62 L 274 62 L 274 72 L 272 72 Z M 272 62 " clip-rule="nonzero"/></clipPath><clipPath id="085a366b1d"><path d="M 279.5625 84.003906 L 248.871094 53.308594 L 279.5625 22.617188 L 310.253906 53.308594 Z M 279.5625 84.003906 " clip-rule="nonzero"/></clipPath><clipPath id="3246bfa317"><path d="M 279.5625 84.003906 L 248.871094 53.308594 L 279.5625 22.617188 L 310.253906 53.308594 Z M 279.5625 84.003906 " clip-rule="nonzero"/></clipPath><clipPath id="2599caa54d"><path d="M 253 47 L 271 47 L 271 59 L 253 59 Z M 253 47 " clip-rule="nonzero"/></clipPath><clipPath id="f7ae48c3bc"><path d="M 279.5625 84.003906 L 248.871094 53.308594 L 279.5625 22.617188 L 310.253906 53.308594 Z M 279.5625 84.003906 " clip-rule="nonzero"/></clipPath><clipPath id="3ecb9c4b08"><path d="M 279.5625 84.003906 L 248.871094 53.308594 L 279.5625 22.617188 L 310.253906 53.308594 Z M 279.5625 84.003906 " clip-rule="nonzero"/></clipPath></defs><g fill="#3080a3" fill-opacity="1"><g transform="translate(25.897273, 70.536708)"><g><path d="M 27.0625 -28.65625 L 32.84375 -28.65625 L 32.84375 -0.046875 L 26.75 -0.046875 L 26.109375 -2.59375 C 24.878906 -1.53125 23.476562 -0.695312 21.90625 -0.09375 C 20.332031 0.5 18.644531 0.796875 16.84375 0.796875 C 13.976562 0.796875 11.414062 0.132812 9.15625 -1.1875 C 6.90625 -2.507812 5.125 -4.3125 3.8125 -6.59375 C 2.507812 -8.875 1.859375 -11.460938 1.859375 -14.359375 C 1.859375 -17.210938 2.507812 -19.78125 3.8125 -22.0625 C 5.125 -24.34375 6.90625 -26.132812 9.15625 -27.4375 C 11.414062 -28.738281 13.976562 -29.390625 16.84375 -29.390625 C 18.675781 -29.390625 20.382812 -29.082031 21.96875 -28.46875 C 23.5625 -27.851562 24.976562 -27 26.21875 -25.90625 Z M 17.484375 -6.515625 C 18.960938 -6.515625 20.289062 -6.847656 21.46875 -7.515625 C 22.65625 -8.191406 23.582031 -9.117188 24.25 -10.296875 C 24.925781 -11.484375 25.265625 -12.835938 25.265625 -14.359375 C 25.265625 -15.835938 24.925781 -17.164062 24.25 -18.34375 C 23.582031 -19.53125 22.65625 -20.46875 21.46875 -21.15625 C 20.289062 -21.84375 18.960938 -22.1875 17.484375 -22.1875 C 15.960938 -22.1875 14.617188 -21.84375 13.453125 -21.15625 C 12.285156 -20.46875 11.363281 -19.53125 10.6875 -18.34375 C 10.019531 -17.164062 9.6875 -15.835938 9.6875 -14.359375 C 9.6875 -12.835938 10.019531 -11.492188 10.6875 -10.328125 C 11.363281 -9.160156 12.285156 -8.234375 13.453125 -7.546875 C 14.617188 -6.859375 15.960938 -6.515625 17.484375 -6.515625 Z M 17.484375 -6.515625 "/></g></g></g><g fill="#3080a3" fill-opacity="1"><g transform="translate(62.436116, 70.536708)"><g><path d="M 19.28125 -29.390625 C 22.207031 -29.390625 24.800781 -28.738281 27.0625 -27.4375 C 29.320312 -26.132812 31.097656 -24.34375 32.390625 -22.0625 C 33.679688 -19.78125 34.328125 -17.191406 34.328125 -14.296875 C 34.328125 -11.398438 33.679688 -8.8125 32.390625 -6.53125 C 31.097656 -4.257812 29.320312 -2.46875 27.0625 -1.15625 C 24.800781 0.144531 22.207031 0.796875 19.28125 0.796875 C 17.550781 0.796875 15.925781 0.523438 14.40625 -0.015625 C 12.882812 -0.566406 11.523438 -1.359375 10.328125 -2.390625 L 9.421875 0 L 3.703125 0 L 3.703125 -38.9375 L 11.4375 -38.9375 L 11.4375 -27.0625 C 12.53125 -27.800781 13.738281 -28.375 15.0625 -28.78125 C 16.394531 -29.1875 17.800781 -29.390625 19.28125 -29.390625 Z M 18.640625 -6.515625 C 20.160156 -6.515625 21.503906 -6.847656 22.671875 -7.515625 C 23.835938 -8.191406 24.753906 -9.117188 25.421875 -10.296875 C 26.097656 -11.484375 26.4375 -12.816406 26.4375 -14.296875 C 26.4375 -15.785156 26.097656 -17.117188 25.421875 -18.296875 C 24.753906 -19.484375 23.835938 -20.421875 22.671875 -21.109375 C 21.503906 -21.796875 20.160156 -22.140625 18.640625 -22.140625 C 17.160156 -22.140625 15.828125 -21.796875 14.640625 -21.109375 C 13.460938 -20.421875 12.535156 -19.484375 11.859375 -18.296875 C 11.191406 -17.117188 10.859375 -15.785156 10.859375 -14.296875 C 10.859375 -12.816406 11.191406 -11.492188 11.859375 -10.328125 C 12.535156 -9.160156 13.460938 -8.234375 14.640625 -7.546875 C 15.828125 -6.859375 17.160156 -6.515625 18.640625 -6.515625 Z M 18.640625 -6.515625 "/></g></g></g><g fill="#3080a3" fill-opacity="1"><g transform="translate(98.604285, 70.536708)"><g><path d="M 19.28125 -29.390625 C 22.207031 -29.390625 24.800781 -28.738281 27.0625 -27.4375 C 29.320312 -26.132812 31.097656 -24.34375 32.390625 -22.0625 C 33.679688 -19.78125 34.328125 -17.191406 34.328125 -14.296875 C 34.328125 -11.398438 33.679688 -8.8125 32.390625 -6.53125 C 31.097656 -4.257812 29.320312 -2.46875 27.0625 -1.15625 C 24.800781 0.144531 22.207031 0.796875 19.28125 0.796875 C 17.550781 0.796875 15.925781 0.523438 14.40625 -0.015625 C 12.882812 -0.566406 11.523438 -1.359375 10.328125 -2.390625 L 9.421875 0 L 3.703125 0 L 3.703125 -38.9375 L 11.4375 -38.9375 L 11.4375 -27.0625 C 12.53125 -27.800781 13.738281 -28.375 15.0625 -28.78125 C 16.394531 -29.1875 17.800781 -29.390625 19.28125 -29.390625 Z M 18.640625 -6.515625 C 20.160156 -6.515625 21.503906 -6.847656 22.671875 -7.515625 C 23.835938 -8.191406 24.753906 -9.117188 25.421875 -10.296875 C 26.097656 -11.484375 26.4375 -12.816406 26.4375 -14.296875 C 26.4375 -15.785156 26.097656 -17.117188 25.421875 -18.296875 C 24.753906 -19.484375 23.835938 -20.421875 22.671875 -21.109375 C 21.503906 -21.796875 20.160156 -22.140625 18.640625 -22.140625 C 17.160156 -22.140625 15.828125 -21.796875 14.640625 -21.109375 C 13.460938 -20.421875 12.535156 -19.484375 11.859375 -18.296875 C 11.191406 -17.117188 10.859375 -15.785156 10.859375 -14.296875 C 10.859375 -12.816406 11.191406 -11.492188 11.859375 -10.328125 C 12.535156 -9.160156 13.460938 -8.234375 14.640625 -7.546875 C 15.828125 -6.859375 17.160156 -6.515625 18.640625 -6.515625 Z M 18.640625 -6.515625 "/></g></g></g><g fill="#3080a3" fill-opacity="1"><g transform="translate(134.772453, 70.536708)"><g><path d="M 27.0625 -28.65625 L 32.84375 -28.65625 L 32.84375 -0.046875 L 26.75 -0.046875 L 26.109375 -2.59375 C 24.878906 -1.53125 23.476562 -0.695312 21.90625 -0.09375 C 20.332031 0.5 18.644531 0.796875 16.84375 0.796875 C 13.976562 0.796875 11.414062 0.132812 9.15625 -1.1875 C 6.90625 -2.507812 5.125 -4.3125 3.8125 -6.59375 C 2.507812 -8.875 1.859375 -11.460938 1.859375 -14.359375 C 1.859375 -17.210938 2.507812 -19.78125 3.8125 -22.0625 C 5.125 -24.34375 6.90625 -26.132812 9.15625 -27.4375 C 11.414062 -28.738281 13.976562 -29.390625 16.84375 -29.390625 C 18.675781 -29.390625 20.382812 -29.082031 21.96875 -28.46875 C 23.5625 -27.851562 24.976562 -27 26.21875 -25.90625 Z M 17.484375 -6.515625 C 18.960938 -6.515625 20.289062 -6.847656 21.46875 -7.515625 C 22.65625 -8.191406 23.582031 -9.117188 24.25 -10.296875 C 24.925781 -11.484375 25.265625 -12.835938 25.265625 -14.359375 C 25.265625 -15.835938 24.925781 -17.164062 24.25 -18.34375 C 23.582031 -19.53125 22.65625 -20.46875 21.46875 -21.15625 C 20.289062 -21.84375 18.960938 -22.1875 17.484375 -22.1875 C 15.960938 -22.1875 14.617188 -21.84375 13.453125 -21.15625 C 12.285156 -20.46875 11.363281 -19.53125 10.6875 -18.34375 C 10.019531 -17.164062 9.6875 -15.835938 9.6875 -14.359375 C 9.6875 -12.835938 10.019531 -11.492188 10.6875 -10.328125 C 11.363281 -9.160156 12.285156 -8.234375 13.453125 -7.546875 C 14.617188 -6.859375 15.960938 -6.515625 17.484375 -6.515625 Z M 17.484375 -6.515625 "/></g></g></g><g fill="#3080a3" fill-opacity="1"><g transform="translate(168.145381, 70.74501)"><g><path d="M 6.53125 -1 L 23.953125 -1 L 23.953125 0 L 5.484375 0 L 5.484375 -34.921875 L 6.53125 -34.921875 Z M 6.53125 -1 "/></g></g></g><g fill="#3080a3" fill-opacity="1"><g transform="translate(194.683677, 70.74501)"><g><path d="M 6.53125 -1 L 24.59375 -1 L 24.59375 0 L 5.484375 0 L 5.484375 -34.921875 L 24.046875 -34.921875 L 24.046875 -33.921875 L 6.53125 -33.921875 L 6.53125 -18.8125 L 22.75 -18.8125 L 22.75 -17.8125 L 6.53125 -17.8125 Z M 6.53125 -1 "/></g></g></g><g fill="#3080a3" fill-opacity="1"><g transform="translate(223.117552, 70.74501)"><g><path d="M 31.328125 0 L 26.6875 -10.53125 L 6.9375 -10.53125 L 2.4375 0 L 1.34375 0 L 16.265625 -34.921875 L 17.0625 -34.921875 L 32.421875 0 Z M 16.71875 -33.375 L 7.328125 -11.46875 L 26.296875 -11.46875 Z M 16.71875 -33.375 "/></g></g></g><g fill="#3080a3" fill-opacity="1"><g transform="translate(258.394069, 70.74501)"><g/></g></g><g fill="#3080a3" fill-opacity="1"><g transform="translate(274.107625, 70.74501)"><g/></g></g><g fill="#3080a3" fill-opacity="1"><g transform="translate(289.821181, 70.74501)"><g/></g></g><g fill="#3080a3" fill-opacity="1"><g transform="translate(305.541352, 70.74501)"><g><path d="M 14.8125 0.40625 C 12.382812 0.40625 10.265625 -0.0351562 8.453125 -0.921875 C 6.640625 -1.804688 5.222656 -3.035156 4.203125 -4.609375 C 3.191406 -6.191406 2.6875 -8.046875 2.6875 -10.171875 L 3.734375 -10.171875 C 3.734375 -8.242188 4.191406 -6.566406 5.109375 -5.140625 C 6.023438 -3.710938 7.3125 -2.597656 8.96875 -1.796875 C 10.632812 -0.992188 12.582031 -0.59375 14.8125 -0.59375 C 16.84375 -0.59375 18.628906 -0.957031 20.171875 -1.6875 C 21.722656 -2.425781 22.9375 -3.453125 23.8125 -4.765625 C 24.695312 -6.078125 25.140625 -7.582031 25.140625 -9.28125 C 25.140625 -10.78125 24.847656 -11.984375 24.265625 -12.890625 C 23.691406 -13.804688 22.910156 -14.546875 21.921875 -15.109375 C 20.941406 -15.679688 19.828125 -16.140625 18.578125 -16.484375 C 17.335938 -16.835938 16.035156 -17.144531 14.671875 -17.40625 C 13.304688 -17.707031 11.96875 -18.039062 10.65625 -18.40625 C 9.34375 -18.769531 8.144531 -19.257812 7.0625 -19.875 C 5.976562 -20.488281 5.113281 -21.300781 4.46875 -22.3125 C 3.820312 -23.332031 3.5 -24.644531 3.5 -26.25 C 3.5 -28.96875 4.503906 -31.160156 6.515625 -32.828125 C 8.523438 -34.492188 11.207031 -35.328125 14.5625 -35.328125 C 16.695312 -35.328125 18.566406 -34.925781 20.171875 -34.125 C 21.785156 -33.320312 23.035156 -32.207031 23.921875 -30.78125 C 24.804688 -29.351562 25.25 -27.675781 25.25 -25.75 L 24.25 -25.75 C 24.25 -28.34375 23.359375 -30.421875 21.578125 -31.984375 C 19.796875 -33.546875 17.457031 -34.328125 14.5625 -34.328125 C 11.507812 -34.328125 9.066406 -33.59375 7.234375 -32.125 C 5.398438 -30.664062 4.484375 -28.707031 4.484375 -26.25 C 4.484375 -24.84375 4.773438 -23.691406 5.359375 -22.796875 C 5.941406 -21.898438 6.734375 -21.175781 7.734375 -20.625 C 8.734375 -20.082031 9.847656 -19.644531 11.078125 -19.3125 C 12.304688 -18.976562 13.585938 -18.675781 14.921875 -18.40625 C 16.316406 -18.101562 17.675781 -17.757812 19 -17.375 C 20.332031 -17 21.539062 -16.492188 22.625 -15.859375 C 23.707031 -15.234375 24.5625 -14.394531 25.1875 -13.34375 C 25.820312 -12.300781 26.140625 -10.960938 26.140625 -9.328125 C 26.140625 -7.398438 25.65625 -5.703125 24.6875 -4.234375 C 23.726562 -2.773438 22.398438 -1.632812 20.703125 -0.8125 C 19.003906 0 17.039062 0.40625 14.8125 0.40625 Z M 14.8125 0.40625 "/></g></g></g><g fill="#65605f" fill-opacity="1"><g transform="translate(31.285696, 93.113008)"><g><path d="M 6.453125 -13 C 7.265625 -13 7.992188 -12.816406 8.640625 -12.453125 C 9.296875 -12.097656 9.8125 -11.601562 10.1875 -10.96875 C 10.5625 -10.34375 10.75 -9.632812 10.75 -8.84375 C 10.75 -8.050781 10.5625 -7.335938 10.1875 -6.703125 C 9.8125 -6.078125 9.296875 -5.582031 8.640625 -5.21875 C 7.992188 -4.863281 7.265625 -4.6875 6.453125 -4.6875 L 3.40625 -4.6875 L 3.40625 0 L 1.78125 0 L 1.78125 -13 Z M 6.359375 -6.265625 C 7.148438 -6.265625 7.800781 -6.507812 8.3125 -7 C 8.820312 -7.488281 9.078125 -8.101562 9.078125 -8.84375 C 9.078125 -9.582031 8.820312 -10.195312 8.3125 -10.6875 C 7.800781 -11.175781 7.148438 -11.421875 6.359375 -11.421875 L 3.40625 -11.421875 L 3.40625 -6.265625 Z M 6.359375 -6.265625 "/></g></g></g><g fill="#65605f" fill-opacity="1"><g transform="translate(50.685734, 93.113008)"><g><path d="M 6.171875 -10.09375 L 7.0625 -10.09375 L 7.0625 -8.578125 L 6.03125 -8.578125 C 5.113281 -8.578125 4.40625 -8.296875 3.90625 -7.734375 C 3.414062 -7.179688 3.171875 -6.414062 3.171875 -5.4375 L 3.171875 0 L 1.59375 0 L 1.59375 -10.03125 L 2.71875 -10.03125 L 2.96875 -8.515625 C 3.332031 -9.015625 3.773438 -9.398438 4.296875 -9.671875 C 4.828125 -9.953125 5.453125 -10.09375 6.171875 -10.09375 Z M 6.171875 -10.09375 "/></g></g></g><g fill="#65605f" fill-opacity="1"><g transform="translate(65.923696, 93.113008)"><g><path d="M 10.984375 -4.984375 C 10.984375 -4.878906 10.972656 -4.78125 10.953125 -4.6875 C 10.941406 -4.59375 10.9375 -4.5 10.9375 -4.40625 L 2.375 -4.40625 C 2.5 -3.476562 2.882812 -2.726562 3.53125 -2.15625 C 4.175781 -1.59375 4.96875 -1.3125 5.90625 -1.3125 C 6.601562 -1.3125 7.222656 -1.46875 7.765625 -1.78125 C 8.304688 -2.09375 8.734375 -2.519531 9.046875 -3.0625 L 10.703125 -3.0625 C 10.273438 -2.019531 9.640625 -1.210938 8.796875 -0.640625 C 7.960938 -0.0664062 7 0.21875 5.90625 0.21875 C 4.9375 0.21875 4.066406 -0.0078125 3.296875 -0.46875 C 2.523438 -0.925781 1.914062 -1.550781 1.46875 -2.34375 C 1.019531 -3.132812 0.796875 -4.023438 0.796875 -5.015625 C 0.796875 -6.003906 1.019531 -6.894531 1.46875 -7.6875 C 1.914062 -8.476562 2.523438 -9.101562 3.296875 -9.5625 C 4.066406 -10.019531 4.9375 -10.25 5.90625 -10.25 C 6.925781 -10.25 7.816406 -10.015625 8.578125 -9.546875 C 9.335938 -9.078125 9.925781 -8.441406 10.34375 -7.640625 C 10.769531 -6.847656 10.984375 -5.960938 10.984375 -4.984375 Z M 5.90625 -8.75 C 5 -8.75 4.234375 -8.484375 3.609375 -7.953125 C 2.984375 -7.429688 2.585938 -6.738281 2.421875 -5.875 L 9.375 -5.875 C 9.21875 -6.757812 8.820312 -7.457031 8.1875 -7.96875 C 7.5625 -8.488281 6.800781 -8.75 5.90625 -8.75 Z M 5.90625 -8.75 "/></g></g></g><g fill="#65605f" fill-opacity="1"><g transform="translate(85.732508, 93.113008)"><g><path d="M 12.671875 -10.25 C 13.390625 -10.25 14.007812 -10.082031 14.53125 -9.75 C 15.0625 -9.425781 15.472656 -8.976562 15.765625 -8.40625 C 16.054688 -7.832031 16.203125 -7.164062 16.203125 -6.40625 L 16.203125 0 L 14.625 0 L 14.625 -5.921875 C 14.625 -6.828125 14.425781 -7.535156 14.03125 -8.046875 C 13.632812 -8.554688 13.078125 -8.8125 12.359375 -8.8125 C 11.867188 -8.8125 11.421875 -8.664062 11.015625 -8.375 C 10.609375 -8.09375 10.28125 -7.707031 10.03125 -7.21875 C 9.789062 -6.726562 9.671875 -6.175781 9.671875 -5.5625 L 9.671875 0 L 8.140625 0 L 8.140625 -5.921875 C 8.140625 -6.828125 7.9375 -7.535156 7.53125 -8.046875 C 7.125 -8.554688 6.566406 -8.8125 5.859375 -8.8125 C 5.359375 -8.8125 4.90625 -8.664062 4.5 -8.375 C 4.101562 -8.09375 3.78125 -7.707031 3.53125 -7.21875 C 3.289062 -6.726562 3.171875 -6.175781 3.171875 -5.5625 L 3.171875 0 L 1.59375 0 L 1.59375 -10.03125 L 2.734375 -10.03125 L 2.984375 -8.65625 C 3.367188 -9.15625 3.84375 -9.546875 4.40625 -9.828125 C 4.96875 -10.109375 5.566406 -10.25 6.203125 -10.25 C 6.910156 -10.25 7.53125 -10.078125 8.0625 -9.734375 C 8.59375 -9.398438 8.992188 -8.9375 9.265625 -8.34375 C 9.648438 -8.9375 10.144531 -9.398438 10.75 -9.734375 C 11.351562 -10.078125 11.992188 -10.25 12.671875 -10.25 Z M 12.671875 -10.25 "/></g></g></g><g fill="#65605f" fill-opacity="1"><g transform="translate(111.449974, 93.113008)"><g><path d="M 1.515625 -11.78125 L 1.515625 -13.578125 L 3.234375 -13.578125 L 3.234375 -11.78125 Z M 1.59375 0 L 1.59375 -10.03125 L 3.171875 -10.03125 L 3.171875 0 Z M 1.59375 0 "/></g></g></g><g fill="#65605f" fill-opacity="1"><g transform="translate(124.272453, 93.113008)"><g><path d="M 5.875 0.21875 C 4.96875 0.21875 4.179688 0.0351562 3.515625 -0.328125 C 2.859375 -0.703125 2.34375 -1.21875 1.96875 -1.875 C 1.59375 -2.539062 1.40625 -3.328125 1.40625 -4.234375 L 1.40625 -10.03125 L 2.984375 -10.03125 L 2.984375 -4.5 C 2.984375 -3.507812 3.238281 -2.726562 3.75 -2.15625 C 4.269531 -1.582031 4.976562 -1.296875 5.875 -1.296875 C 6.757812 -1.296875 7.457031 -1.582031 7.96875 -2.15625 C 8.476562 -2.738281 8.734375 -3.519531 8.734375 -4.5 L 8.734375 -10.03125 L 10.3125 -10.03125 L 10.3125 -4.234375 C 10.3125 -3.328125 10.128906 -2.539062 9.765625 -1.875 C 9.410156 -1.21875 8.898438 -0.703125 8.234375 -0.328125 C 7.566406 0.0351562 6.78125 0.21875 5.875 0.21875 Z M 5.875 0.21875 "/></g></g></g><g fill="#65605f" fill-opacity="1"><g transform="translate(144.081265, 93.113008)"><g><path d="M 12.671875 -10.25 C 13.390625 -10.25 14.007812 -10.082031 14.53125 -9.75 C 15.0625 -9.425781 15.472656 -8.976562 15.765625 -8.40625 C 16.054688 -7.832031 16.203125 -7.164062 16.203125 -6.40625 L 16.203125 0 L 14.625 0 L 14.625 -5.921875 C 14.625 -6.828125 14.425781 -7.535156 14.03125 -8.046875 C 13.632812 -8.554688 13.078125 -8.8125 12.359375 -8.8125 C 11.867188 -8.8125 11.421875 -8.664062 11.015625 -8.375 C 10.609375 -8.09375 10.28125 -7.707031 10.03125 -7.21875 C 9.789062 -6.726562 9.671875 -6.175781 9.671875 -5.5625 L 9.671875 0 L 8.140625 0 L 8.140625 -5.921875 C 8.140625 -6.828125 7.9375 -7.535156 7.53125 -8.046875 C 7.125 -8.554688 6.566406 -8.8125 5.859375 -8.8125 C 5.359375 -8.8125 4.90625 -8.664062 4.5 -8.375 C 4.101562 -8.09375 3.78125 -7.707031 3.53125 -7.21875 C 3.289062 -6.726562 3.171875 -6.175781 3.171875 -5.5625 L 3.171875 0 L 1.59375 0 L 1.59375 -10.03125 L 2.734375 -10.03125 L 2.984375 -8.65625 C 3.367188 -9.15625 3.84375 -9.546875 4.40625 -9.828125 C 4.96875 -10.109375 5.566406 -10.25 6.203125 -10.25 C 6.910156 -10.25 7.53125 -10.078125 8.0625 -9.734375 C 8.59375 -9.398438 8.992188 -8.9375 9.265625 -8.34375 C 9.648438 -8.9375 10.144531 -9.398438 10.75 -9.734375 C 11.351562 -10.078125 11.992188 -10.25 12.671875 -10.25 Z M 12.671875 -10.25 "/></g></g></g><g fill="#65605f" fill-opacity="1"><g transform="translate(169.798736, 93.113008)"><g/></g></g><g fill="#65605f" fill-opacity="1"><g transform="translate(182.732707, 93.113008)"><g><path d="M 3.40625 -1.5625 L 9.34375 -1.5625 L 9.34375 0 L 1.78125 0 L 1.78125 -13 L 9.140625 -13 L 9.140625 -11.46875 L 3.40625 -11.46875 L 3.40625 -7.4375 L 8.65625 -7.4375 L 8.65625 -5.921875 L 3.40625 -5.921875 Z M 3.40625 -1.5625 "/></g></g></g><g fill="#65605f" fill-opacity="1"><g transform="translate(201.073653, 93.113008)"><g><path d="M 9.421875 0 L 7.640625 0 L 4.78125 -4.1875 L 1.875 0 L 0.15625 0 L 3.828125 -5.21875 L 0.453125 -10.03125 L 2.203125 -10.03125 L 4.78125 -6.3125 L 7.390625 -10.03125 L 9.125 -10.03125 L 5.71875 -5.28125 Z M 9.421875 0 "/></g></g></g><g fill="#65605f" fill-opacity="1"><g transform="translate(218.671368, 93.113008)"><g><path d="M 5.734375 -1.46875 L 6.84375 -1.46875 L 6.84375 0 L 5.53125 0 C 4.457031 0 3.609375 -0.3125 2.984375 -0.9375 C 2.367188 -1.5625 2.0625 -2.421875 2.0625 -3.515625 L 2.0625 -8.609375 L 0.296875 -8.609375 L 0.296875 -8.875 L 3.40625 -12.15625 L 3.640625 -12.15625 L 3.640625 -10.03125 L 6.78125 -10.03125 L 6.78125 -8.609375 L 3.640625 -8.609375 L 3.640625 -3.5625 C 3.640625 -2.882812 3.816406 -2.363281 4.171875 -2 C 4.535156 -1.644531 5.054688 -1.46875 5.734375 -1.46875 Z M 5.734375 -1.46875 "/></g></g></g><g fill="#65605f" fill-opacity="1"><g transform="translate(234.095139, 93.113008)"><g><path d="M 6.171875 -10.09375 L 7.0625 -10.09375 L 7.0625 -8.578125 L 6.03125 -8.578125 C 5.113281 -8.578125 4.40625 -8.296875 3.90625 -7.734375 C 3.414062 -7.179688 3.171875 -6.414062 3.171875 -5.4375 L 3.171875 0 L 1.59375 0 L 1.59375 -10.03125 L 2.71875 -10.03125 L 2.96875 -8.515625 C 3.332031 -9.015625 3.773438 -9.398438 4.296875 -9.671875 C 4.828125 -9.953125 5.453125 -10.09375 6.171875 -10.09375 Z M 6.171875 -10.09375 "/></g></g></g><g fill="#65605f" fill-opacity="1"><g transform="translate(249.333097, 93.113008)"><g><path d="M 10.140625 -10.03125 L 11.40625 -10.03125 L 11.40625 0 L 10.09375 0 L 9.921875 -1.515625 C 9.460938 -0.972656 8.894531 -0.546875 8.21875 -0.234375 C 7.539062 0.0664062 6.796875 0.21875 5.984375 0.21875 C 5.003906 0.21875 4.117188 -0.0078125 3.328125 -0.46875 C 2.546875 -0.925781 1.925781 -1.550781 1.46875 -2.34375 C 1.019531 -3.132812 0.796875 -4.023438 0.796875 -5.015625 C 0.796875 -6.015625 1.019531 -6.90625 1.46875 -7.6875 C 1.925781 -8.476562 2.546875 -9.101562 3.328125 -9.5625 C 4.117188 -10.019531 5.003906 -10.25 5.984375 -10.25 C 6.816406 -10.25 7.566406 -10.09375 8.234375 -9.78125 C 8.910156 -9.46875 9.476562 -9.035156 9.9375 -8.484375 Z M 6.109375 -1.296875 C 6.816406 -1.296875 7.445312 -1.457031 8 -1.78125 C 8.5625 -2.101562 9 -2.546875 9.3125 -3.109375 C 9.632812 -3.671875 9.796875 -4.304688 9.796875 -5.015625 C 9.796875 -5.722656 9.632812 -6.359375 9.3125 -6.921875 C 9 -7.484375 8.5625 -7.925781 8 -8.25 C 7.445312 -8.570312 6.816406 -8.734375 6.109375 -8.734375 C 5.398438 -8.734375 4.765625 -8.566406 4.203125 -8.234375 C 3.648438 -7.910156 3.210938 -7.46875 2.890625 -6.90625 C 2.578125 -6.351562 2.421875 -5.722656 2.421875 -5.015625 C 2.421875 -4.304688 2.578125 -3.671875 2.890625 -3.109375 C 3.210938 -2.554688 3.648438 -2.113281 4.203125 -1.78125 C 4.765625 -1.457031 5.398438 -1.296875 6.109375 -1.296875 Z M 6.109375 -1.296875 "/></g></g></g><g fill="#65605f" fill-opacity="1"><g transform="translate(270.386813, 93.113008)"><g><path d="M 6.015625 0.21875 C 5.023438 0.21875 4.132812 -0.0078125 3.34375 -0.46875 C 2.5625 -0.925781 1.941406 -1.550781 1.484375 -2.34375 C 1.023438 -3.132812 0.796875 -4.023438 0.796875 -5.015625 C 0.796875 -6.015625 1.023438 -6.90625 1.484375 -7.6875 C 1.941406 -8.476562 2.5625 -9.101562 3.34375 -9.5625 C 4.132812 -10.019531 5.023438 -10.25 6.015625 -10.25 C 6.804688 -10.25 7.535156 -10.097656 8.203125 -9.796875 C 8.867188 -9.503906 9.429688 -9.085938 9.890625 -8.546875 C 10.359375 -8.015625 10.691406 -7.382812 10.890625 -6.65625 L 9.328125 -6.65625 C 9.023438 -7.289062 8.578125 -7.796875 7.984375 -8.171875 C 7.398438 -8.546875 6.742188 -8.734375 6.015625 -8.734375 C 5.328125 -8.734375 4.707031 -8.566406 4.15625 -8.234375 C 3.613281 -7.910156 3.1875 -7.46875 2.875 -6.90625 C 2.570312 -6.34375 2.421875 -5.710938 2.421875 -5.015625 C 2.421875 -4.316406 2.578125 -3.6875 2.890625 -3.125 C 3.203125 -2.5625 3.628906 -2.113281 4.171875 -1.78125 C 4.722656 -1.457031 5.335938 -1.296875 6.015625 -1.296875 C 6.742188 -1.296875 7.394531 -1.484375 7.96875 -1.859375 C 8.550781 -2.242188 9 -2.769531 9.3125 -3.4375 L 10.90625 -3.4375 C 10.707031 -2.695312 10.375 -2.050781 9.90625 -1.5 C 9.4375 -0.957031 8.863281 -0.535156 8.1875 -0.234375 C 7.519531 0.0664062 6.796875 0.21875 6.015625 0.21875 Z M 6.015625 0.21875 "/></g></g></g><g fill="#65605f" fill-opacity="1"><g transform="translate(289.972659, 93.113008)"><g><path d="M 5.734375 -1.46875 L 6.84375 -1.46875 L 6.84375 0 L 5.53125 0 C 4.457031 0 3.609375 -0.3125 2.984375 -0.9375 C 2.367188 -1.5625 2.0625 -2.421875 2.0625 -3.515625 L 2.0625 -8.609375 L 0.296875 -8.609375 L 0.296875 -8.875 L 3.40625 -12.15625 L 3.640625 -12.15625 L 3.640625 -10.03125 L 6.78125 -10.03125 L 6.78125 -8.609375 L 3.640625 -8.609375 L 3.640625 -3.5625 C 3.640625 -2.882812 3.816406 -2.363281 4.171875 -2 C 4.535156 -1.644531 5.054688 -1.46875 5.734375 -1.46875 Z M 5.734375 -1.46875 "/></g></g></g><g fill="#65605f" fill-opacity="1"><g transform="translate(305.396429, 93.113008)"><g><path d="M 6.109375 0.21875 C 5.097656 0.21875 4.191406 -0.0078125 3.390625 -0.46875 C 2.585938 -0.925781 1.953125 -1.546875 1.484375 -2.328125 C 1.023438 -3.117188 0.796875 -4.015625 0.796875 -5.015625 C 0.796875 -6.015625 1.023438 -6.910156 1.484375 -7.703125 C 1.953125 -8.503906 2.585938 -9.128906 3.390625 -9.578125 C 4.191406 -10.023438 5.097656 -10.25 6.109375 -10.25 C 7.128906 -10.25 8.039062 -10.019531 8.84375 -9.5625 C 9.644531 -9.101562 10.273438 -8.476562 10.734375 -7.6875 C 11.203125 -6.90625 11.4375 -6.015625 11.4375 -5.015625 C 11.4375 -4.015625 11.203125 -3.117188 10.734375 -2.328125 C 10.273438 -1.546875 9.644531 -0.925781 8.84375 -0.46875 C 8.039062 -0.0078125 7.128906 0.21875 6.109375 0.21875 Z M 6.109375 -1.296875 C 6.828125 -1.296875 7.460938 -1.457031 8.015625 -1.78125 C 8.578125 -2.101562 9.019531 -2.539062 9.34375 -3.09375 C 9.664062 -3.65625 9.828125 -4.296875 9.828125 -5.015625 C 9.828125 -5.734375 9.664062 -6.367188 9.34375 -6.921875 C 9.019531 -7.484375 8.578125 -7.925781 8.015625 -8.25 C 7.460938 -8.570312 6.828125 -8.734375 6.109375 -8.734375 C 5.390625 -8.734375 4.75 -8.570312 4.1875 -8.25 C 3.632812 -7.925781 3.203125 -7.484375 2.890625 -6.921875 C 2.578125 -6.367188 2.421875 -5.734375 2.421875 -5.015625 C 2.421875 -4.296875 2.578125 -3.65625 2.890625 -3.09375 C 3.203125 -2.539062 3.640625 -2.101562 4.203125 -1.78125 C 4.765625 -1.457031 5.398438 -1.296875 6.109375 -1.296875 Z M 6.109375 -1.296875 "/></g></g></g><g fill="#65605f" fill-opacity="1"><g transform="translate(325.706915, 93.113008)"><g><path d="M 6.171875 -10.09375 L 7.0625 -10.09375 L 7.0625 -8.578125 L 6.03125 -8.578125 C 5.113281 -8.578125 4.40625 -8.296875 3.90625 -7.734375 C 3.414062 -7.179688 3.171875 -6.414062 3.171875 -5.4375 L 3.171875 0 L 1.59375 0 L 1.59375 -10.03125 L 2.71875 -10.03125 L 2.96875 -8.515625 C 3.332031 -9.015625 3.773438 -9.398438 4.296875 -9.671875 C 4.828125 -9.953125 5.453125 -10.09375 6.171875 -10.09375 Z M 6.171875 -10.09375 "/></g></g></g><g clip-path="url(#8562141d54)"><g clip-path="url(#4ba6011849)"><g clip-path="url(#8c79c64c35)"><path fill="#65605f" d="M 301.558594 53.242188 C 301.558594 51.015625 301.121094 48.851562 300.261719 46.816406 C 299.429688 44.847656 298.238281 43.082031 296.722656 41.566406 C 295.207031 40.050781 293.441406 38.859375 291.472656 38.027344 C 289.4375 37.167969 287.273438 36.730469 285.046875 36.730469 L 267.640625 36.730469 L 267.640625 42.917969 L 285.046875 42.917969 C 286.4375 42.917969 287.789062 43.191406 289.058594 43.734375 C 290.289062 44.253906 291.394531 45 292.339844 45.945312 C 293.289062 46.894531 294.035156 48 294.554688 49.226562 C 295.09375 50.5 295.367188 51.851562 295.367188 53.242188 C 295.367188 54.636719 295.09375 55.984375 294.554688 57.257812 C 294.035156 58.488281 293.289062 59.59375 292.34375 60.539062 C 291.394531 61.488281 290.289062 62.234375 289.0625 62.753906 C 287.789062 63.292969 286.4375 63.566406 285.046875 63.566406 L 267.640625 63.566406 L 267.640625 69.757812 L 285.046875 69.757812 C 287.273438 69.757812 289.4375 69.320312 291.472656 68.457031 C 293.441406 67.625 295.207031 66.4375 296.722656 64.921875 C 298.238281 63.40625 299.429688 61.640625 300.261719 59.671875 C 301.121094 57.632812 301.558594 55.472656 301.558594 53.242188 Z M 297.683594 40.605469 C 299.324219 42.246094 300.613281 44.15625 301.511719 46.285156 C 302.445312 48.492188 302.917969 50.832031 302.917969 53.242188 C 302.917969 55.652344 302.445312 57.996094 301.511719 60.203125 C 300.613281 62.332031 299.324219 64.242188 297.683594 65.882812 C 296.042969 67.523438 294.132812 68.808594 292.003906 69.710938 C 289.796875 70.644531 287.457031 71.117188 285.046875 71.117188 L 266.960938 71.117188 C 266.78125 71.117188 266.605469 71.046875 266.480469 70.917969 C 266.351562 70.789062 266.28125 70.617188 266.28125 70.4375 L 266.28125 62.886719 C 266.28125 62.511719 266.585938 62.207031 266.960938 62.207031 L 285.046875 62.207031 C 287.433594 62.207031 289.6875 61.273438 291.378906 59.578125 C 293.074219 57.882812 294.007812 55.632812 294.007812 53.242188 C 294.007812 50.851562 293.074219 48.601562 291.378906 46.90625 C 289.683594 45.210938 287.433594 44.277344 285.046875 44.277344 L 266.960938 44.277344 C 266.585938 44.277344 266.28125 43.976562 266.28125 43.597656 L 266.28125 36.050781 C 266.28125 35.871094 266.351562 35.695312 266.480469 35.570312 C 266.605469 35.441406 266.78125 35.371094 266.960938 35.371094 L 285.046875 35.371094 C 287.457031 35.371094 289.796875 35.84375 292.003906 36.777344 C 294.132812 37.675781 296.042969 38.964844 297.683594 40.605469 " fill-opacity="1" fill-rule="nonzero"/></g></g></g><g clip-path="url(#588b3c1a60)"><g clip-path="url(#b2a8898b54)"><g clip-path="url(#2521ef9fef)"><path fill="#65605f" d="M 273.628906 35.570312 C 273.75 35.691406 273.828125 35.863281 273.828125 36.050781 L 273.828125 43.597656 C 273.828125 43.976562 273.523438 44.277344 273.148438 44.277344 C 272.773438 44.277344 272.46875 43.976562 272.46875 43.597656 L 272.46875 36.050781 C 272.46875 35.675781 272.773438 35.371094 273.148438 35.371094 C 273.335938 35.371094 273.503906 35.445312 273.628906 35.570312 " fill-opacity="1" fill-rule="nonzero"/></g></g></g><g clip-path="url(#b185bf6b5f)"><g clip-path="url(#085a366b1d)"><g clip-path="url(#3246bfa317)"><path fill="#65605f" d="M 273.628906 62.40625 C 273.75 62.53125 273.828125 62.699219 273.828125 62.886719 L 273.828125 70.4375 C 273.828125 70.8125 273.523438 71.117188 273.148438 71.117188 C 272.773438 71.117188 272.46875 70.8125 272.46875 70.4375 L 272.46875 62.886719 C 272.46875 62.511719 272.773438 62.207031 273.148438 62.207031 C 273.335938 62.207031 273.503906 62.285156 273.628906 62.40625 " fill-opacity="1" fill-rule="nonzero"/></g></g></g><g clip-path="url(#2599caa54d)"><g clip-path="url(#f7ae48c3bc)"><g clip-path="url(#3ecb9c4b08)"><path fill="#65605f" d="M 262.65625 56.796875 L 262.65625 53.753906 C 262.65625 53.574219 262.726562 53.402344 262.855469 53.273438 C 262.980469 53.148438 263.15625 53.074219 263.335938 53.074219 L 267.203125 53.078125 L 261.339844 49.691406 L 261.339844 52.730469 C 261.339844 53.105469 261.035156 53.410156 260.660156 53.410156 L 256.792969 53.410156 Z M 270.222656 53.273438 C 270.390625 53.445312 270.460938 53.691406 270.398438 53.933594 C 270.316406 54.230469 270.046875 54.433594 269.742188 54.433594 L 264.015625 54.433594 L 264.015625 57.972656 C 264.015625 58.214844 263.886719 58.441406 263.675781 58.5625 C 263.464844 58.683594 263.207031 58.683594 262.996094 58.5625 L 253.914062 53.320312 C 253.648438 53.164062 253.519531 52.851562 253.597656 52.554688 C 253.675781 52.257812 253.945312 52.050781 254.253906 52.050781 L 259.980469 52.050781 L 259.980469 48.511719 C 259.980469 48.269531 260.109375 48.046875 260.320312 47.925781 C 260.53125 47.804688 260.789062 47.804688 261 47.925781 L 270.082031 53.167969 C 270.132812 53.199219 270.179688 53.234375 270.222656 53.273438 " fill-opacity="1" fill-rule="nonzero"/></g></g></g></svg>