<svg xmlns="http://www.w3.org/2000/svg" xmlns:xlink="http://www.w3.org/1999/xlink" width="500" zoomAndPan="magnify" viewBox="0 0 375 374.999991" height="500" preserveAspectRatio="xMidYMid meet" version="1.0"><defs><g/><clipPath id="35530a7c7d"><path d="M 271 165 L 309 165 L 309 201 L 271 201 Z M 271 165 " clip-rule="nonzero"/></clipPath><clipPath id="73f8780851"><path d="M 285.1875 213.910156 L 254.429688 183.152344 L 285.1875 152.390625 L 315.949219 183.152344 Z M 285.1875 213.910156 " clip-rule="nonzero"/></clipPath><clipPath id="9e6e0bd21d"><path d="M 285.1875 213.910156 L 254.429688 183.152344 L 285.1875 152.390625 L 315.949219 183.152344 Z M 285.1875 213.910156 " clip-rule="nonzero"/></clipPath><clipPath id="191d86f91e"><path d="M 278 165 L 280 165 L 280 175 L 278 175 Z M 278 165 " clip-rule="nonzero"/></clipPath><clipPath id="7d26aefaa3"><path d="M 285.1875 213.910156 L 254.429688 183.152344 L 285.1875 152.390625 L 315.949219 183.152344 Z M 285.1875 213.910156 " clip-rule="nonzero"/></clipPath><clipPath id="f735659842"><path d="M 285.1875 213.910156 L 254.429688 183.152344 L 285.1875 152.390625 L 315.949219 183.152344 Z M 285.1875 213.910156 " clip-rule="nonzero"/></clipPath><clipPath id="b107a1a517"><path d="M 278 192 L 280 192 L 280 201 L 278 201 Z M 278 192 " clip-rule="nonzero"/></clipPath><clipPath id="648a9acab4"><path d="M 285.1875 213.910156 L 254.429688 183.152344 L 285.1875 152.390625 L 315.949219 183.152344 Z M 285.1875 213.910156 " clip-rule="nonzero"/></clipPath><clipPath id="3ac8cea589"><path d="M 285.1875 213.910156 L 254.429688 183.152344 L 285.1875 152.390625 L 315.949219 183.152344 Z M 285.1875 213.910156 " clip-rule="nonzero"/></clipPath><clipPath id="eb69b66260"><path d="M 259 177 L 277 177 L 277 189 L 259 189 Z M 259 177 " clip-rule="nonzero"/></clipPath><clipPath id="b093d8f352"><path d="M 285.1875 213.910156 L 254.429688 183.152344 L 285.1875 152.390625 L 315.949219 183.152344 Z M 285.1875 213.910156 " clip-rule="nonzero"/></clipPath><clipPath id="fa25b84ec1"><path d="M 285.1875 213.910156 L 254.429688 183.152344 L 285.1875 152.390625 L 315.949219 183.152344 Z M 285.1875 213.910156 " clip-rule="nonzero"/></clipPath></defs><g fill="#3080a3" fill-opacity="1"><g transform="translate(30.970157, 200.41623)"><g><path d="M 27.125 -28.71875 L 32.90625 -28.71875 L 32.90625 -0.046875 L 26.796875 -0.046875 L 26.171875 -2.59375 C 24.929688 -1.539062 23.519531 -0.710938 21.9375 -0.109375 C 20.363281 0.492188 18.675781 0.796875 16.875 0.796875 C 14.007812 0.796875 11.441406 0.132812 9.171875 -1.1875 C 6.910156 -2.519531 5.125 -4.328125 3.8125 -6.609375 C 2.507812 -8.890625 1.859375 -11.484375 1.859375 -14.390625 C 1.859375 -17.253906 2.507812 -19.828125 3.8125 -22.109375 C 5.125 -24.390625 6.910156 -26.179688 9.171875 -27.484375 C 11.441406 -28.796875 14.007812 -29.453125 16.875 -29.453125 C 18.71875 -29.453125 20.4375 -29.140625 22.03125 -28.515625 C 23.625 -27.898438 25.039062 -27.046875 26.28125 -25.953125 Z M 17.515625 -6.53125 C 19.003906 -6.53125 20.335938 -6.863281 21.515625 -7.53125 C 22.703125 -8.207031 23.628906 -9.140625 24.296875 -10.328125 C 24.972656 -11.515625 25.3125 -12.867188 25.3125 -14.390625 C 25.3125 -15.867188 24.972656 -17.203125 24.296875 -18.390625 C 23.628906 -19.578125 22.703125 -20.515625 21.515625 -21.203125 C 20.335938 -21.890625 19.003906 -22.234375 17.515625 -22.234375 C 15.992188 -22.234375 14.648438 -21.890625 13.484375 -21.203125 C 12.316406 -20.515625 11.394531 -19.578125 10.71875 -18.390625 C 10.050781 -17.203125 9.71875 -15.867188 9.71875 -14.390625 C 9.71875 -12.867188 10.050781 -11.519531 10.71875 -10.34375 C 11.394531 -9.175781 12.316406 -8.25 13.484375 -7.5625 C 14.648438 -6.875 15.992188 -6.53125 17.515625 -6.53125 Z M 17.515625 -6.53125 "/></g></g></g><g fill="#3080a3" fill-opacity="1"><g transform="translate(67.588604, 200.41623)"><g><path d="M 19.328125 -29.453125 C 22.253906 -29.453125 24.847656 -28.796875 27.109375 -27.484375 C 29.378906 -26.179688 31.160156 -24.390625 32.453125 -22.109375 C 33.742188 -19.828125 34.390625 -17.234375 34.390625 -14.328125 C 34.390625 -11.429688 33.742188 -8.835938 32.453125 -6.546875 C 31.160156 -4.265625 29.378906 -2.46875 27.109375 -1.15625 C 24.847656 0.144531 22.253906 0.796875 19.328125 0.796875 C 17.585938 0.796875 15.957031 0.523438 14.4375 -0.015625 C 12.914062 -0.566406 11.550781 -1.359375 10.34375 -2.390625 L 9.453125 0 L 3.71875 0 L 3.71875 -39.015625 L 11.46875 -39.015625 L 11.46875 -27.125 C 12.5625 -27.863281 13.769531 -28.4375 15.09375 -28.84375 C 16.425781 -29.25 17.835938 -29.453125 19.328125 -29.453125 Z M 18.6875 -6.53125 C 20.207031 -6.53125 21.550781 -6.863281 22.71875 -7.53125 C 23.882812 -8.207031 24.800781 -9.140625 25.46875 -10.328125 C 26.144531 -11.515625 26.484375 -12.847656 26.484375 -14.328125 C 26.484375 -15.816406 26.144531 -17.148438 25.46875 -18.328125 C 24.800781 -19.515625 23.882812 -20.453125 22.71875 -21.140625 C 21.550781 -21.835938 20.207031 -22.1875 18.6875 -22.1875 C 17.195312 -22.1875 15.859375 -21.835938 14.671875 -21.140625 C 13.484375 -20.453125 12.550781 -19.515625 11.875 -18.328125 C 11.207031 -17.148438 10.875 -15.816406 10.875 -14.328125 C 10.875 -12.847656 11.207031 -11.519531 11.875 -10.34375 C 12.550781 -9.175781 13.484375 -8.25 14.671875 -7.5625 C 15.859375 -6.875 17.195312 -6.53125 18.6875 -6.53125 Z M 18.6875 -6.53125 "/></g></g></g><g fill="#3080a3" fill-opacity="1"><g transform="translate(103.83557, 200.41623)"><g><path d="M 19.328125 -29.453125 C 22.253906 -29.453125 24.847656 -28.796875 27.109375 -27.484375 C 29.378906 -26.179688 31.160156 -24.390625 32.453125 -22.109375 C 33.742188 -19.828125 34.390625 -17.234375 34.390625 -14.328125 C 34.390625 -11.429688 33.742188 -8.835938 32.453125 -6.546875 C 31.160156 -4.265625 29.378906 -2.46875 27.109375 -1.15625 C 24.847656 0.144531 22.253906 0.796875 19.328125 0.796875 C 17.585938 0.796875 15.957031 0.523438 14.4375 -0.015625 C 12.914062 -0.566406 11.550781 -1.359375 10.34375 -2.390625 L 9.453125 0 L 3.71875 0 L 3.71875 -39.015625 L 11.46875 -39.015625 L 11.46875 -27.125 C 12.5625 -27.863281 13.769531 -28.4375 15.09375 -28.84375 C 16.425781 -29.25 17.835938 -29.453125 19.328125 -29.453125 Z M 18.6875 -6.53125 C 20.207031 -6.53125 21.550781 -6.863281 22.71875 -7.53125 C 23.882812 -8.207031 24.800781 -9.140625 25.46875 -10.328125 C 26.144531 -11.515625 26.484375 -12.847656 26.484375 -14.328125 C 26.484375 -15.816406 26.144531 -17.148438 25.46875 -18.328125 C 24.800781 -19.515625 23.882812 -20.453125 22.71875 -21.140625 C 21.550781 -21.835938 20.207031 -22.1875 18.6875 -22.1875 C 17.195312 -22.1875 15.859375 -21.835938 14.671875 -21.140625 C 13.484375 -20.453125 12.550781 -19.515625 11.875 -18.328125 C 11.207031 -17.148438 10.875 -15.816406 10.875 -14.328125 C 10.875 -12.847656 11.207031 -11.519531 11.875 -10.34375 C 12.550781 -9.175781 13.484375 -8.25 14.671875 -7.5625 C 15.859375 -6.875 17.195312 -6.53125 18.6875 -6.53125 Z M 18.6875 -6.53125 "/></g></g></g><g fill="#3080a3" fill-opacity="1"><g transform="translate(140.082536, 200.41623)"><g><path d="M 27.125 -28.71875 L 32.90625 -28.71875 L 32.90625 -0.046875 L 26.796875 -0.046875 L 26.171875 -2.59375 C 24.929688 -1.539062 23.519531 -0.710938 21.9375 -0.109375 C 20.363281 0.492188 18.675781 0.796875 16.875 0.796875 C 14.007812 0.796875 11.441406 0.132812 9.171875 -1.1875 C 6.910156 -2.519531 5.125 -4.328125 3.8125 -6.609375 C 2.507812 -8.890625 1.859375 -11.484375 1.859375 -14.390625 C 1.859375 -17.253906 2.507812 -19.828125 3.8125 -22.109375 C 5.125 -24.390625 6.910156 -26.179688 9.171875 -27.484375 C 11.441406 -28.796875 14.007812 -29.453125 16.875 -29.453125 C 18.71875 -29.453125 20.4375 -29.140625 22.03125 -28.515625 C 23.625 -27.898438 25.039062 -27.046875 26.28125 -25.953125 Z M 17.515625 -6.53125 C 19.003906 -6.53125 20.335938 -6.863281 21.515625 -7.53125 C 22.703125 -8.207031 23.628906 -9.140625 24.296875 -10.328125 C 24.972656 -11.515625 25.3125 -12.867188 25.3125 -14.390625 C 25.3125 -15.867188 24.972656 -17.203125 24.296875 -18.390625 C 23.628906 -19.578125 22.703125 -20.515625 21.515625 -21.203125 C 20.335938 -21.890625 19.003906 -22.234375 17.515625 -22.234375 C 15.992188 -22.234375 14.648438 -21.890625 13.484375 -21.203125 C 12.316406 -20.515625 11.394531 -19.578125 10.71875 -18.390625 C 10.050781 -17.203125 9.71875 -15.867188 9.71875 -14.390625 C 9.71875 -12.867188 10.050781 -11.519531 10.71875 -10.34375 C 11.394531 -9.175781 12.316406 -8.25 13.484375 -7.5625 C 14.648438 -6.875 15.992188 -6.53125 17.515625 -6.53125 Z M 17.515625 -6.53125 "/></g></g></g><g fill="#3080a3" fill-opacity="1"><g transform="translate(173.528183, 200.624987)"><g><path d="M 6.546875 -1 L 24 -1 L 24 0 L 5.5 0 L 5.5 -35 L 6.546875 -35 Z M 6.546875 -1 "/></g></g></g><g fill="#3080a3" fill-opacity="1"><g transform="translate(200.124296, 200.624987)"><g><path d="M 6.546875 -1 L 24.65625 -1 L 24.65625 0 L 5.5 0 L 5.5 -35 L 24.09375 -35 L 24.09375 -34 L 6.546875 -34 L 6.546875 -18.84375 L 22.796875 -18.84375 L 22.796875 -17.84375 L 6.546875 -17.84375 Z M 6.546875 -1 "/></g></g></g><g fill="#3080a3" fill-opacity="1"><g transform="translate(228.620118, 200.624987)"><g><path d="M 31.40625 0 L 26.75 -10.546875 L 6.953125 -10.546875 L 2.453125 0 L 1.34375 0 L 16.296875 -35 L 17.09375 -35 L 32.5 0 Z M 16.75 -33.453125 L 7.34375 -11.5 L 26.34375 -11.5 Z M 16.75 -33.453125 "/></g></g></g><g fill="#3080a3" fill-opacity="1"><g transform="translate(263.973489, 200.624987)"><g/></g></g><g fill="#3080a3" fill-opacity="1"><g transform="translate(279.721279, 200.624987)"><g/></g></g><g fill="#3080a3" fill-opacity="1"><g transform="translate(295.46907, 200.624987)"><g/></g></g><g fill="#3080a3" fill-opacity="1"><g transform="translate(311.22349, 200.624987)"><g><path d="M 14.84375 0.40625 C 12.414062 0.40625 10.289062 -0.0351562 8.46875 -0.921875 C 6.65625 -1.804688 5.238281 -3.039062 4.21875 -4.625 C 3.207031 -6.207031 2.703125 -8.066406 2.703125 -10.203125 L 3.75 -10.203125 C 3.75 -8.265625 4.207031 -6.578125 5.125 -5.140625 C 6.039062 -3.710938 7.332031 -2.597656 9 -1.796875 C 10.664062 -0.992188 12.613281 -0.59375 14.84375 -0.59375 C 16.882812 -0.59375 18.675781 -0.957031 20.21875 -1.6875 C 21.769531 -2.425781 22.988281 -3.453125 23.875 -4.765625 C 24.757812 -6.085938 25.203125 -7.597656 25.203125 -9.296875 C 25.203125 -10.796875 24.910156 -12.003906 24.328125 -12.921875 C 23.742188 -13.835938 22.957031 -14.578125 21.96875 -15.140625 C 20.988281 -15.710938 19.875 -16.171875 18.625 -16.515625 C 17.375 -16.867188 16.066406 -17.179688 14.703125 -17.453125 C 13.335938 -17.753906 11.992188 -18.085938 10.671875 -18.453125 C 9.359375 -18.816406 8.160156 -19.304688 7.078125 -19.921875 C 5.992188 -20.535156 5.125 -21.351562 4.46875 -22.375 C 3.820312 -23.394531 3.5 -24.703125 3.5 -26.296875 C 3.5 -29.035156 4.503906 -31.238281 6.515625 -32.90625 C 8.535156 -34.570312 11.226562 -35.40625 14.59375 -35.40625 C 16.726562 -35.40625 18.601562 -35.003906 20.21875 -34.203125 C 21.84375 -33.398438 23.09375 -32.28125 23.96875 -30.84375 C 24.851562 -29.414062 25.296875 -27.734375 25.296875 -25.796875 L 24.296875 -25.796875 C 24.296875 -28.398438 23.40625 -30.484375 21.625 -32.046875 C 19.84375 -33.617188 17.5 -34.40625 14.59375 -34.40625 C 11.53125 -34.40625 9.082031 -33.671875 7.25 -32.203125 C 5.414062 -30.734375 4.5 -28.765625 4.5 -26.296875 C 4.5 -24.898438 4.789062 -23.75 5.375 -22.84375 C 5.957031 -21.945312 6.75 -21.222656 7.75 -20.671875 C 8.75 -20.117188 9.863281 -19.675781 11.09375 -19.34375 C 12.332031 -19.007812 13.617188 -18.710938 14.953125 -18.453125 C 16.347656 -18.148438 17.710938 -17.804688 19.046875 -17.421875 C 20.378906 -17.035156 21.585938 -16.523438 22.671875 -15.890625 C 23.753906 -15.265625 24.613281 -14.425781 25.25 -13.375 C 25.882812 -12.320312 26.203125 -10.976562 26.203125 -9.34375 C 26.203125 -7.414062 25.71875 -5.71875 24.75 -4.25 C 23.78125 -2.78125 22.445312 -1.632812 20.75 -0.8125 C 19.050781 0 17.082031 0.40625 14.84375 0.40625 Z M 14.84375 0.40625 "/></g></g></g><g fill="#65605f" fill-opacity="1"><g transform="translate(36.370318, 223.041725)"><g><path d="M 6.46875 -13.03125 C 7.28125 -13.03125 8.007812 -12.847656 8.65625 -12.484375 C 9.3125 -12.128906 9.828125 -11.632812 10.203125 -11 C 10.585938 -10.375 10.78125 -9.660156 10.78125 -8.859375 C 10.78125 -8.066406 10.585938 -7.351562 10.203125 -6.71875 C 9.828125 -6.09375 9.3125 -5.597656 8.65625 -5.234375 C 8.007812 -4.867188 7.28125 -4.6875 6.46875 -4.6875 L 3.40625 -4.6875 L 3.40625 0 L 1.78125 0 L 1.78125 -13.03125 Z M 6.375 -6.28125 C 7.164062 -6.28125 7.816406 -6.523438 8.328125 -7.015625 C 8.847656 -7.503906 9.109375 -8.117188 9.109375 -8.859375 C 9.109375 -9.609375 8.847656 -10.226562 8.328125 -10.71875 C 7.816406 -11.207031 7.164062 -11.453125 6.375 -11.453125 L 3.40625 -11.453125 L 3.40625 -6.28125 Z M 6.375 -6.28125 "/></g></g></g><g fill="#65605f" fill-opacity="1"><g transform="translate(55.812622, 223.041725)"><g><path d="M 6.1875 -10.109375 L 7.078125 -10.109375 L 7.078125 -8.609375 L 6.046875 -8.609375 C 5.128906 -8.609375 4.421875 -8.328125 3.921875 -7.765625 C 3.429688 -7.203125 3.1875 -6.429688 3.1875 -5.453125 L 3.1875 0 L 1.609375 0 L 1.609375 -10.0625 L 2.71875 -10.0625 L 2.984375 -8.53125 C 3.335938 -9.039062 3.78125 -9.429688 4.3125 -9.703125 C 4.84375 -9.972656 5.46875 -10.109375 6.1875 -10.109375 Z M 6.1875 -10.109375 "/></g></g></g><g fill="#65605f" fill-opacity="1"><g transform="translate(71.083783, 223.041725)"><g><path d="M 11 -4.984375 C 11 -4.890625 10.992188 -4.796875 10.984375 -4.703125 C 10.972656 -4.609375 10.96875 -4.515625 10.96875 -4.421875 L 2.390625 -4.421875 C 2.503906 -3.484375 2.882812 -2.734375 3.53125 -2.171875 C 4.175781 -1.609375 4.972656 -1.328125 5.921875 -1.328125 C 6.617188 -1.328125 7.238281 -1.476562 7.78125 -1.78125 C 8.332031 -2.09375 8.765625 -2.523438 9.078125 -3.078125 L 10.734375 -3.078125 C 10.304688 -2.035156 9.671875 -1.222656 8.828125 -0.640625 C 7.984375 -0.0664062 7.015625 0.21875 5.921875 0.21875 C 4.953125 0.21875 4.078125 -0.0078125 3.296875 -0.46875 C 2.523438 -0.925781 1.914062 -1.550781 1.46875 -2.34375 C 1.019531 -3.132812 0.796875 -4.03125 0.796875 -5.03125 C 0.796875 -6.019531 1.019531 -6.910156 1.46875 -7.703125 C 1.914062 -8.503906 2.523438 -9.132812 3.296875 -9.59375 C 4.078125 -10.050781 4.953125 -10.28125 5.921875 -10.28125 C 6.941406 -10.28125 7.832031 -10.039062 8.59375 -9.5625 C 9.351562 -9.09375 9.941406 -8.457031 10.359375 -7.65625 C 10.785156 -6.863281 11 -5.972656 11 -4.984375 Z M 5.921875 -8.765625 C 5.015625 -8.765625 4.25 -8.5 3.625 -7.96875 C 3 -7.445312 2.597656 -6.753906 2.421875 -5.890625 L 9.40625 -5.890625 C 9.238281 -6.773438 8.835938 -7.472656 8.203125 -7.984375 C 7.578125 -8.503906 6.816406 -8.765625 5.921875 -8.765625 Z M 5.921875 -8.765625 "/></g></g></g><g fill="#65605f" fill-opacity="1"><g transform="translate(90.93575, 223.041725)"><g><path d="M 12.703125 -10.28125 C 13.421875 -10.28125 14.039062 -10.113281 14.5625 -9.78125 C 15.09375 -9.457031 15.503906 -9.003906 15.796875 -8.421875 C 16.085938 -7.847656 16.234375 -7.179688 16.234375 -6.421875 L 16.234375 0 L 14.65625 0 L 14.65625 -5.9375 C 14.65625 -6.84375 14.457031 -7.550781 14.0625 -8.0625 C 13.664062 -8.570312 13.109375 -8.828125 12.390625 -8.828125 C 11.898438 -8.828125 11.453125 -8.679688 11.046875 -8.390625 C 10.640625 -8.109375 10.3125 -7.722656 10.0625 -7.234375 C 9.820312 -6.742188 9.703125 -6.1875 9.703125 -5.5625 L 9.703125 0 L 8.15625 0 L 8.15625 -5.9375 C 8.15625 -6.84375 7.953125 -7.550781 7.546875 -8.0625 C 7.148438 -8.570312 6.585938 -8.828125 5.859375 -8.828125 C 5.367188 -8.828125 4.921875 -8.679688 4.515625 -8.390625 C 4.109375 -8.109375 3.785156 -7.722656 3.546875 -7.234375 C 3.304688 -6.742188 3.1875 -6.1875 3.1875 -5.5625 L 3.1875 0 L 1.609375 0 L 1.609375 -10.0625 L 2.734375 -10.0625 L 3 -8.671875 C 3.382812 -9.171875 3.859375 -9.5625 4.421875 -9.84375 C 4.984375 -10.132812 5.582031 -10.28125 6.21875 -10.28125 C 6.925781 -10.28125 7.546875 -10.109375 8.078125 -9.765625 C 8.617188 -9.421875 9.023438 -8.953125 9.296875 -8.359375 C 9.679688 -8.953125 10.171875 -9.421875 10.765625 -9.765625 C 11.367188 -10.109375 12.015625 -10.28125 12.703125 -10.28125 Z M 12.703125 -10.28125 "/></g></g></g><g fill="#65605f" fill-opacity="1"><g transform="translate(116.709245, 223.041725)"><g><path d="M 1.53125 -11.8125 L 1.53125 -13.609375 L 3.234375 -13.609375 L 3.234375 -11.8125 Z M 1.609375 0 L 1.609375 -10.0625 L 3.1875 -10.0625 L 3.1875 0 Z M 1.609375 0 "/></g></g></g><g fill="#65605f" fill-opacity="1"><g transform="translate(129.55966, 223.041725)"><g><path d="M 5.890625 0.21875 C 4.984375 0.21875 4.195312 0.0351562 3.53125 -0.328125 C 2.863281 -0.703125 2.34375 -1.222656 1.96875 -1.890625 C 1.601562 -2.554688 1.421875 -3.34375 1.421875 -4.25 L 1.421875 -10.0625 L 3 -10.0625 L 3 -4.5 C 3 -3.507812 3.253906 -2.726562 3.765625 -2.15625 C 4.285156 -1.582031 4.992188 -1.296875 5.890625 -1.296875 C 6.773438 -1.296875 7.472656 -1.582031 7.984375 -2.15625 C 8.492188 -2.738281 8.75 -3.519531 8.75 -4.5 L 8.75 -10.0625 L 10.34375 -10.0625 L 10.34375 -4.25 C 10.34375 -3.34375 10.160156 -2.554688 9.796875 -1.890625 C 9.429688 -1.222656 8.914062 -0.703125 8.25 -0.328125 C 7.582031 0.0351562 6.796875 0.21875 5.890625 0.21875 Z M 5.890625 0.21875 "/></g></g></g><g fill="#65605f" fill-opacity="1"><g transform="translate(149.411628, 223.041725)"><g><path d="M 12.703125 -10.28125 C 13.421875 -10.28125 14.039062 -10.113281 14.5625 -9.78125 C 15.09375 -9.457031 15.503906 -9.003906 15.796875 -8.421875 C 16.085938 -7.847656 16.234375 -7.179688 16.234375 -6.421875 L 16.234375 0 L 14.65625 0 L 14.65625 -5.9375 C 14.65625 -6.84375 14.457031 -7.550781 14.0625 -8.0625 C 13.664062 -8.570312 13.109375 -8.828125 12.390625 -8.828125 C 11.898438 -8.828125 11.453125 -8.679688 11.046875 -8.390625 C 10.640625 -8.109375 10.3125 -7.722656 10.0625 -7.234375 C 9.820312 -6.742188 9.703125 -6.1875 9.703125 -5.5625 L 9.703125 0 L 8.15625 0 L 8.15625 -5.9375 C 8.15625 -6.84375 7.953125 -7.550781 7.546875 -8.0625 C 7.148438 -8.570312 6.585938 -8.828125 5.859375 -8.828125 C 5.367188 -8.828125 4.921875 -8.679688 4.515625 -8.390625 C 4.109375 -8.109375 3.785156 -7.722656 3.546875 -7.234375 C 3.304688 -6.742188 3.1875 -6.1875 3.1875 -5.5625 L 3.1875 0 L 1.609375 0 L 1.609375 -10.0625 L 2.734375 -10.0625 L 3 -8.671875 C 3.382812 -9.171875 3.859375 -9.5625 4.421875 -9.84375 C 4.984375 -10.132812 5.582031 -10.28125 6.21875 -10.28125 C 6.925781 -10.28125 7.546875 -10.109375 8.078125 -9.765625 C 8.617188 -9.421875 9.023438 -8.953125 9.296875 -8.359375 C 9.679688 -8.953125 10.171875 -9.421875 10.765625 -9.765625 C 11.367188 -10.109375 12.015625 -10.28125 12.703125 -10.28125 Z M 12.703125 -10.28125 "/></g></g></g><g fill="#65605f" fill-opacity="1"><g transform="translate(175.185129, 223.041725)"><g/></g></g><g fill="#65605f" fill-opacity="1"><g transform="translate(188.147278, 223.041725)"><g><path d="M 3.40625 -1.5625 L 9.375 -1.5625 L 9.375 0 L 1.78125 0 L 1.78125 -13.03125 L 9.15625 -13.03125 L 9.15625 -11.484375 L 3.40625 -11.484375 L 3.40625 -7.453125 L 8.671875 -7.453125 L 8.671875 -5.9375 L 3.40625 -5.9375 Z M 3.40625 -1.5625 "/></g></g></g><g fill="#65605f" fill-opacity="1"><g transform="translate(206.528182, 223.041725)"><g><path d="M 9.4375 0 L 7.65625 0 L 4.78125 -4.1875 L 1.875 0 L 0.15625 0 L 3.84375 -5.234375 L 0.453125 -10.0625 L 2.21875 -10.0625 L 4.78125 -6.328125 L 7.40625 -10.0625 L 9.140625 -10.0625 L 5.734375 -5.296875 Z M 9.4375 0 "/></g></g></g><g fill="#65605f" fill-opacity="1"><g transform="translate(224.164236, 223.041725)"><g><path d="M 5.75 -1.46875 L 6.859375 -1.46875 L 6.859375 0 L 5.546875 0 C 4.472656 0 3.625 -0.3125 3 -0.9375 C 2.375 -1.5625 2.0625 -2.421875 2.0625 -3.515625 L 2.0625 -8.625 L 0.296875 -8.625 L 0.296875 -8.90625 L 3.40625 -12.1875 L 3.65625 -12.1875 L 3.65625 -10.0625 L 6.796875 -10.0625 L 6.796875 -8.625 L 3.65625 -8.625 L 3.65625 -3.578125 C 3.65625 -2.890625 3.832031 -2.363281 4.1875 -2 C 4.550781 -1.644531 5.070312 -1.46875 5.75 -1.46875 Z M 5.75 -1.46875 "/></g></g></g><g fill="#65605f" fill-opacity="1"><g transform="translate(239.62161, 223.041725)"><g><path d="M 6.1875 -10.109375 L 7.078125 -10.109375 L 7.078125 -8.609375 L 6.046875 -8.609375 C 5.128906 -8.609375 4.421875 -8.328125 3.921875 -7.765625 C 3.429688 -7.203125 3.1875 -6.429688 3.1875 -5.453125 L 3.1875 0 L 1.609375 0 L 1.609375 -10.0625 L 2.71875 -10.0625 L 2.984375 -8.53125 C 3.335938 -9.039062 3.78125 -9.429688 4.3125 -9.703125 C 4.84375 -9.972656 5.46875 -10.109375 6.1875 -10.109375 Z M 6.1875 -10.109375 "/></g></g></g><g fill="#65605f" fill-opacity="1"><g transform="translate(254.892766, 223.041725)"><g><path d="M 10.171875 -10.0625 L 11.4375 -10.0625 L 11.4375 0 L 10.109375 0 L 9.953125 -1.53125 C 9.484375 -0.976562 8.910156 -0.546875 8.234375 -0.234375 C 7.554688 0.0664062 6.8125 0.21875 6 0.21875 C 5.019531 0.21875 4.132812 -0.0078125 3.34375 -0.46875 C 2.550781 -0.925781 1.925781 -1.550781 1.46875 -2.34375 C 1.019531 -3.132812 0.796875 -4.03125 0.796875 -5.03125 C 0.796875 -6.03125 1.019531 -6.925781 1.46875 -7.71875 C 1.925781 -8.507812 2.550781 -9.132812 3.34375 -9.59375 C 4.132812 -10.050781 5.019531 -10.28125 6 -10.28125 C 6.832031 -10.28125 7.585938 -10.117188 8.265625 -9.796875 C 8.941406 -9.484375 9.507812 -9.054688 9.96875 -8.515625 Z M 6.125 -1.296875 C 6.832031 -1.296875 7.460938 -1.457031 8.015625 -1.78125 C 8.578125 -2.101562 9.015625 -2.546875 9.328125 -3.109375 C 9.648438 -3.679688 9.8125 -4.320312 9.8125 -5.03125 C 9.8125 -5.738281 9.648438 -6.375 9.328125 -6.9375 C 9.015625 -7.5 8.578125 -7.941406 8.015625 -8.265625 C 7.460938 -8.585938 6.832031 -8.75 6.125 -8.75 C 5.414062 -8.75 4.78125 -8.582031 4.21875 -8.25 C 3.664062 -7.925781 3.226562 -7.484375 2.90625 -6.921875 C 2.582031 -6.367188 2.421875 -5.738281 2.421875 -5.03125 C 2.421875 -4.320312 2.582031 -3.6875 2.90625 -3.125 C 3.226562 -2.570312 3.664062 -2.128906 4.21875 -1.796875 C 4.78125 -1.460938 5.414062 -1.296875 6.125 -1.296875 Z M 6.125 -1.296875 "/></g></g></g><g fill="#65605f" fill-opacity="1"><g transform="translate(275.992351, 223.041725)"><g><path d="M 6.03125 0.21875 C 5.039062 0.21875 4.148438 -0.0078125 3.359375 -0.46875 C 2.566406 -0.925781 1.941406 -1.550781 1.484375 -2.34375 C 1.023438 -3.132812 0.796875 -4.03125 0.796875 -5.03125 C 0.796875 -6.03125 1.023438 -6.925781 1.484375 -7.71875 C 1.941406 -8.507812 2.566406 -9.132812 3.359375 -9.59375 C 4.148438 -10.050781 5.039062 -10.28125 6.03125 -10.28125 C 6.820312 -10.28125 7.550781 -10.128906 8.21875 -9.828125 C 8.882812 -9.535156 9.445312 -9.117188 9.90625 -8.578125 C 10.375 -8.035156 10.710938 -7.398438 10.921875 -6.671875 L 9.34375 -6.671875 C 9.050781 -7.316406 8.609375 -7.820312 8.015625 -8.1875 C 7.429688 -8.5625 6.769531 -8.75 6.03125 -8.75 C 5.332031 -8.75 4.710938 -8.582031 4.171875 -8.25 C 3.628906 -7.925781 3.203125 -7.484375 2.890625 -6.921875 C 2.578125 -6.359375 2.421875 -5.726562 2.421875 -5.03125 C 2.421875 -4.332031 2.578125 -3.703125 2.890625 -3.140625 C 3.210938 -2.578125 3.644531 -2.128906 4.1875 -1.796875 C 4.738281 -1.460938 5.351562 -1.296875 6.03125 -1.296875 C 6.769531 -1.296875 7.425781 -1.484375 8 -1.859375 C 8.570312 -2.242188 9.015625 -2.773438 9.328125 -3.453125 L 10.9375 -3.453125 C 10.738281 -2.703125 10.398438 -2.050781 9.921875 -1.5 C 9.453125 -0.957031 8.878906 -0.535156 8.203125 -0.234375 C 7.535156 0.0664062 6.8125 0.21875 6.03125 0.21875 Z M 6.03125 0.21875 "/></g></g></g><g fill="#65605f" fill-opacity="1"><g transform="translate(295.620866, 223.041725)"><g><path d="M 5.75 -1.46875 L 6.859375 -1.46875 L 6.859375 0 L 5.546875 0 C 4.472656 0 3.625 -0.3125 3 -0.9375 C 2.375 -1.5625 2.0625 -2.421875 2.0625 -3.515625 L 2.0625 -8.625 L 0.296875 -8.625 L 0.296875 -8.90625 L 3.40625 -12.1875 L 3.65625 -12.1875 L 3.65625 -10.0625 L 6.796875 -10.0625 L 6.796875 -8.625 L 3.65625 -8.625 L 3.65625 -3.578125 C 3.65625 -2.890625 3.832031 -2.363281 4.1875 -2 C 4.550781 -1.644531 5.070312 -1.46875 5.75 -1.46875 Z M 5.75 -1.46875 "/></g></g></g><g fill="#65605f" fill-opacity="1"><g transform="translate(311.07824, 223.041725)"><g><path d="M 6.125 0.21875 C 5.101562 0.21875 4.191406 -0.0078125 3.390625 -0.46875 C 2.597656 -0.925781 1.96875 -1.546875 1.5 -2.328125 C 1.03125 -3.117188 0.796875 -4.019531 0.796875 -5.03125 C 0.796875 -6.03125 1.03125 -6.925781 1.5 -7.71875 C 1.96875 -8.519531 2.597656 -9.144531 3.390625 -9.59375 C 4.191406 -10.050781 5.101562 -10.28125 6.125 -10.28125 C 7.144531 -10.28125 8.054688 -10.050781 8.859375 -9.59375 C 9.671875 -9.132812 10.304688 -8.507812 10.765625 -7.71875 C 11.234375 -6.925781 11.46875 -6.03125 11.46875 -5.03125 C 11.46875 -4.019531 11.234375 -3.117188 10.765625 -2.328125 C 10.304688 -1.546875 9.671875 -0.925781 8.859375 -0.46875 C 8.054688 -0.0078125 7.144531 0.21875 6.125 0.21875 Z M 6.125 -1.296875 C 6.84375 -1.296875 7.484375 -1.457031 8.046875 -1.78125 C 8.609375 -2.101562 9.050781 -2.546875 9.375 -3.109375 C 9.695312 -3.671875 9.859375 -4.3125 9.859375 -5.03125 C 9.859375 -5.75 9.695312 -6.382812 9.375 -6.9375 C 9.050781 -7.5 8.609375 -7.941406 8.046875 -8.265625 C 7.484375 -8.585938 6.84375 -8.75 6.125 -8.75 C 5.40625 -8.75 4.765625 -8.585938 4.203125 -8.265625 C 3.648438 -7.941406 3.210938 -7.5 2.890625 -6.9375 C 2.578125 -6.382812 2.421875 -5.75 2.421875 -5.03125 C 2.421875 -4.3125 2.578125 -3.671875 2.890625 -3.109375 C 3.210938 -2.546875 3.65625 -2.101562 4.21875 -1.78125 C 4.78125 -1.457031 5.414062 -1.296875 6.125 -1.296875 Z M 6.125 -1.296875 "/></g></g></g><g fill="#65605f" fill-opacity="1"><g transform="translate(331.432975, 223.041725)"><g><path d="M 6.1875 -10.109375 L 7.078125 -10.109375 L 7.078125 -8.609375 L 6.046875 -8.609375 C 5.128906 -8.609375 4.421875 -8.328125 3.921875 -7.765625 C 3.429688 -7.203125 3.1875 -6.429688 3.1875 -5.453125 L 3.1875 0 L 1.609375 0 L 1.609375 -10.0625 L 2.71875 -10.0625 L 2.984375 -8.53125 C 3.335938 -9.039062 3.78125 -9.429688 4.3125 -9.703125 C 4.84375 -9.972656 5.46875 -10.109375 6.1875 -10.109375 Z M 6.1875 -10.109375 "/></g></g></g><g clip-path="url(#35530a7c7d)"><g clip-path="url(#73f8780851)"><g clip-path="url(#9e6e0bd21d)"><path fill="#65605f" d="M 307.234375 183.085938 C 307.230469 180.851562 306.792969 178.683594 305.929688 176.644531 C 305.097656 174.671875 303.902344 172.902344 302.386719 171.382812 C 300.867188 169.863281 299.097656 168.671875 297.125 167.835938 C 295.082031 166.972656 292.914062 166.535156 290.683594 166.535156 L 273.238281 166.535156 L 273.238281 172.738281 L 290.683594 172.738281 C 292.078125 172.738281 293.429688 173.011719 294.707031 173.554688 C 295.9375 174.074219 297.042969 174.820312 297.996094 175.773438 C 298.945312 176.722656 299.691406 177.828125 300.214844 179.0625 C 300.753906 180.335938 301.027344 181.691406 301.027344 183.085938 C 301.027344 184.480469 300.753906 185.832031 300.214844 187.109375 C 299.691406 188.339844 298.945312 189.449219 297.996094 190.398438 C 297.042969 191.347656 295.9375 192.09375 294.707031 192.617188 C 293.429688 193.15625 292.078125 193.429688 290.683594 193.433594 L 273.238281 193.429688 L 273.238281 199.636719 L 290.683594 199.636719 C 292.914062 199.636719 295.082031 199.199219 297.125 198.332031 C 299.097656 197.5 300.867188 196.308594 302.386719 194.789062 C 303.90625 193.269531 305.097656 191.5 305.929688 189.527344 C 306.792969 187.484375 307.230469 185.316406 307.234375 183.085938 Z M 303.347656 170.417969 C 304.992188 172.0625 306.28125 173.976562 307.183594 176.113281 C 308.121094 178.324219 308.59375 180.667969 308.59375 183.085938 C 308.59375 185.5 308.121094 187.847656 307.183594 190.058594 C 306.285156 192.191406 304.992188 194.109375 303.347656 195.75 C 301.703125 197.394531 299.789062 198.6875 297.65625 199.589844 C 295.445312 200.523438 293.097656 200.996094 290.683594 200.996094 L 272.558594 200.996094 C 272.378906 200.996094 272.203125 200.925781 272.074219 200.796875 C 271.949219 200.671875 271.875 200.496094 271.875 200.316406 L 271.875 192.75 C 271.875 192.375 272.179688 192.070312 272.558594 192.070312 L 290.683594 192.070312 C 293.078125 192.070312 295.332031 191.132812 297.03125 189.433594 C 298.730469 187.734375 299.667969 185.480469 299.667969 183.085938 C 299.667969 180.691406 298.730469 178.433594 297.03125 176.734375 C 295.332031 175.035156 293.078125 174.101562 290.683594 174.101562 L 272.558594 174.101562 C 272.179688 174.101562 271.875 173.796875 271.875 173.421875 L 271.875 165.855469 C 271.875 165.675781 271.949219 165.5 272.074219 165.371094 C 272.203125 165.246094 272.378906 165.171875 272.558594 165.171875 L 290.683594 165.171875 C 293.097656 165.171875 295.445312 165.648438 297.65625 166.582031 C 299.789062 167.484375 301.707031 168.777344 303.347656 170.417969 " fill-opacity="1" fill-rule="nonzero"/></g></g></g><g clip-path="url(#191d86f91e)"><g clip-path="url(#7d26aefaa3)"><g clip-path="url(#f735659842)"><path fill="#65605f" d="M 279.242188 165.371094 C 279.363281 165.496094 279.441406 165.667969 279.441406 165.855469 L 279.441406 173.421875 C 279.441406 173.796875 279.136719 174.101562 278.757812 174.101562 C 278.382812 174.101562 278.078125 173.796875 278.078125 173.421875 L 278.078125 165.855469 C 278.078125 165.476562 278.382812 165.171875 278.757812 165.171875 C 278.949219 165.171875 279.117188 165.25 279.242188 165.371094 " fill-opacity="1" fill-rule="nonzero"/></g></g></g><g clip-path="url(#b107a1a517)"><g clip-path="url(#648a9acab4)"><g clip-path="url(#3ac8cea589)"><path fill="#65605f" d="M 279.242188 192.269531 C 279.363281 192.390625 279.441406 192.5625 279.441406 192.75 L 279.441406 200.316406 C 279.441406 200.691406 279.136719 200.996094 278.757812 200.996094 C 278.382812 200.996094 278.078125 200.691406 278.078125 200.316406 L 278.078125 192.75 C 278.078125 192.375 278.382812 192.070312 278.757812 192.070312 C 278.949219 192.070312 279.117188 192.144531 279.242188 192.269531 " fill-opacity="1" fill-rule="nonzero"/></g></g></g><g clip-path="url(#eb69b66260)"><g clip-path="url(#b093d8f352)"><g clip-path="url(#fa25b84ec1)"><path fill="#65605f" d="M 268.242188 186.644531 L 268.242188 183.597656 C 268.242188 183.417969 268.316406 183.246094 268.445312 183.117188 C 268.570312 182.988281 268.746094 182.917969 268.925781 182.917969 L 272.800781 182.917969 L 266.925781 179.523438 L 266.925781 182.570312 C 266.925781 182.949219 266.621094 183.253906 266.242188 183.253906 L 262.367188 183.253906 Z M 275.824219 183.117188 C 275.996094 183.285156 276.066406 183.535156 276.003906 183.773438 C 275.921875 184.074219 275.652344 184.28125 275.34375 184.28125 L 269.605469 184.28125 L 269.605469 187.824219 C 269.605469 188.070312 269.476562 188.292969 269.265625 188.414062 C 269.054688 188.535156 268.796875 188.539062 268.585938 188.414062 L 259.484375 183.160156 C 259.21875 183.007812 259.085938 182.691406 259.167969 182.394531 C 259.246094 182.097656 259.515625 181.890625 259.824219 181.890625 L 265.5625 181.890625 L 265.5625 178.34375 C 265.5625 178.101562 265.691406 177.875 265.902344 177.753906 C 266.113281 177.632812 266.375 177.632812 266.585938 177.753906 L 275.683594 183.007812 C 275.738281 183.039062 275.785156 183.074219 275.824219 183.117188 " fill-opacity="1" fill-rule="nonzero"/></g></g></g></svg>